<svg width="104" height="104" viewBox="0 0 104 104" fill="none" xmlns="http://www.w3.org/2000/svg">
<path d="M103.188 63.2074V101.128H21.7527V88.1621H47.9928V76.4918H72.67V63.2074H103.188ZM45.9773 9.69902C45.9773 13.4698 49.034 16.5265 52.8048 16.5265C56.5756 16.5265 59.6322 13.4698 59.6322 9.69902C59.6322 5.92821 56.5756 2.87158 52.8048 2.87158C49.034 2.87158 45.9773 5.92821 45.9773 9.69902ZM77.153 42.7251C76.4948 44.2469 74.6854 44.8636 73.1636 44.1645L60.4959 38.2007C59.7557 37.8716 59.1386 37.2135 58.892 36.4323L56.7531 30.3865L53.792 45.1996L63.7829 45.4051C65.9214 45.4462 67.6077 47.256 67.5667 49.3945L67.0321 70.1129C66.991 72.2514 65.2226 73.9377 63.1248 73.9377C63.1248 73.9377 63.0837 73.9377 63.0423 73.9377C60.8623 73.8967 59.1764 72.0868 59.2174 69.9483L59.67 53.0959L47.2111 52.8078L44.332 67.0725C44.2085 67.6481 43.9619 68.2652 43.6329 68.7588L32.9794 84.083C31.6221 86.057 28.99 86.4685 27.0156 85.1112C25.0827 83.7539 24.6301 81.1218 26.0284 79.1885L36.1473 64.7691L42.6323 28.0217L29.7306 39.9362C29.5047 40.1446 29.2541 40.3095 28.99 40.4335L30.1974 41.6408L26.6711 45.1671L32.5479 51.0439L27.8464 55.7454L9.04028 36.9389L13.7418 32.2374L19.6186 38.1142L23.1449 34.5879L25.1123 36.555C25.2622 36.2341 25.4711 35.9346 25.7432 35.6759L41.9039 20.3322C44.0367 18.4968 47.4581 17.3893 50.4197 17.8829L53.2163 18.4175C56.9591 19.0757 59.8378 21.6257 61.0309 24.957L64.0746 33.3062L75.6316 38.7353C77.153 39.3939 77.8111 41.2033 77.153 42.7251ZM27.259 41.6408L23.1449 37.5267L21.088 39.5836L25.2021 43.6977L27.259 41.6408ZM23.1449 53.3945L21.9696 54.5697L19.619 52.2188L20.7943 51.0435L13.7418 43.991L12.5665 45.1663L10.2156 42.8153L11.3908 41.64L7.86459 38.1138L0.8125 45.1667L19.619 63.9732L26.6715 56.9207L23.1449 53.3945Z" fill="white"/>
</svg>
