<svg width="89" height="89" viewBox="0 0 89 89" fill="none" xmlns="http://www.w3.org/2000/svg">
<path d="M85.7234 39.6188L85.6594 36.9099C85.6149 32.5183 85.4314 28.9193 85.0837 25.5791C84.9196 23.8463 84.6749 22.2972 84.3411 20.7814L84.3884 21.0401C84.1909 19.8191 83.7265 18.7316 83.059 17.8027L83.0756 17.8249C82.8225 17.5134 82.4888 17.277 82.1022 17.1519L82.0883 17.1491C81.2428 16.7987 80.261 16.5956 79.2347 16.5956C77.7579 16.5956 76.3812 17.0156 75.2131 17.7415L75.2464 17.722C73.3051 19.2267 72.0035 21.4767 71.7671 24.0327L71.7643 24.0688L70.3486 37.9973C69.5365 37.5663 68.5714 37.3132 67.5479 37.3132C65.1533 37.3132 63.084 38.6982 62.0939 40.7118L62.0772 40.748L57.7524 48.2379L49.5393 56.0783C49.3975 56.2118 49.2751 56.3675 49.1778 56.5372L49.1722 56.5455L46.8582 60.5505L45.6623 59.8608C45.6178 59.8357 45.5649 59.8357 45.5176 59.8135C45.2618 59.6883 44.9586 59.6132 44.6388 59.6132C44.3189 59.6132 44.0185 59.6855 43.7488 59.819L43.7599 59.8135C43.7126 59.8357 43.6598 59.8357 43.6125 59.8608L42.4165 60.5505L40.1053 56.5455C40.0024 56.3675 39.88 56.2118 39.741 56.0783L31.528 48.2379L27.2031 40.748C26.3576 39.1766 24.942 38.0057 23.2398 37.4995L23.1925 37.4884C22.7475 37.366 22.2358 37.2965 21.7074 37.2965C20.6894 37.2965 19.7327 37.5579 18.9011 38.0168L18.9317 38.0029L17.5188 24.105C17.288 21.499 15.9835 19.2378 14.0534 17.7415L14.0339 17.7276C12.8991 17.0212 11.5196 16.6012 10.0428 16.6012C9.01373 16.6012 8.03473 16.8042 7.13917 17.1741L7.18923 17.1547C6.78873 17.2826 6.4522 17.519 6.20467 17.8277L6.20189 17.8305C5.53439 18.7678 5.06158 19.8886 4.86967 21.1013L4.86411 21.1458C4.5832 22.3834 4.3468 23.8992 4.20495 25.4428L4.19383 25.5902C3.84895 28.9193 3.66817 32.5183 3.61811 36.9154C3.60698 37.8277 3.57917 38.7399 3.55414 39.6522C3.5013 40.5255 3.4707 41.549 3.4707 42.5781C3.4707 44.5277 3.57917 46.4496 3.79333 48.3408L3.77108 48.11C4.76677 55.0103 8.1738 60.9733 13.0994 65.2313L13.1355 65.2619C16.0503 67.5704 18.6174 70.0902 20.898 72.8548L20.9675 72.941L19.3071 73.9005C18.6786 74.2676 18.2642 74.9407 18.2642 75.7083C18.2642 76.0921 18.3671 76.4537 18.5479 76.7624L18.5423 76.7513L23.0062 84.4859C23.2815 84.9588 23.7265 85.3092 24.2578 85.4538L24.2717 85.4566C24.4302 85.5011 24.6138 85.5261 24.8029 85.5261C24.8057 85.5261 24.8085 85.5261 24.814 85.5261C24.8168 85.5261 24.8168 85.5261 24.8196 85.5261C25.2006 85.5261 25.5594 85.4232 25.8681 85.2424L25.857 85.248L44.6388 74.4011L63.4317 85.248C63.732 85.4204 64.0908 85.5233 64.4746 85.5261C65.2423 85.5233 65.9153 85.1089 66.2769 84.4943L66.2825 84.4832L70.7464 76.7485C70.9188 76.4481 71.0217 76.0893 71.0217 75.7055C71.0217 75.5136 70.9967 75.3301 70.9494 75.1548L70.9522 75.1688C70.8048 74.6236 70.4543 74.1758 69.9899 73.9033L69.9787 73.8977L68.3156 72.9382C70.688 70.0679 73.2773 67.5314 76.1086 65.287L76.2143 65.2063C81.1371 60.9232 84.5219 54.9797 85.4953 48.2574L85.512 48.1072C85.7011 46.4524 85.8096 44.5333 85.8096 42.592C85.8096 41.5462 85.779 40.5116 85.7178 39.4825L85.7234 39.6244V39.6188ZM15.7805 62.0413C11.6281 58.3923 8.76898 53.361 7.91792 47.6733L7.90123 47.5426C7.73158 46.0491 7.63702 44.3191 7.63702 42.5669C7.63702 41.5852 7.66761 40.6089 7.72602 39.6438L7.72045 39.7773C7.75105 38.8373 7.77886 37.8972 7.7872 36.9572C7.83448 32.6907 8.0097 29.2142 8.34067 26.0102C8.47973 24.4693 8.69667 23.0843 8.99705 21.7298L8.95533 21.9523C9.02764 21.6297 9.11664 21.2348 9.22511 20.9149C9.50323 20.8287 9.8203 20.7786 10.1513 20.7786C10.7242 20.7786 11.2638 20.9288 11.7282 21.193L11.7115 21.1847C12.6405 22.0107 13.2551 23.1705 13.3636 24.4749V24.4944L15.3494 44.0188C15.3828 44.3275 15.4774 44.6112 15.6248 44.8587L15.6192 44.8476L24.5693 60.3475C24.9336 60.9899 25.6122 61.4183 26.391 61.4183C27.5424 61.4183 28.4769 60.4838 28.4769 59.3323C28.4769 58.9374 28.3657 58.5675 28.1765 58.2532L28.1821 58.2615L20.3529 44.7002C19.474 43.1733 19.9941 42.147 20.7756 41.6964C21.5433 41.2375 22.703 41.2987 23.5903 42.8312L28.0625 50.5797C28.1654 50.7577 28.2878 50.9107 28.4296 51.047L36.6427 58.8901L38.8065 62.6337L24.5887 70.8411C21.9799 67.5398 19.0846 64.6473 15.889 62.1247L15.7805 62.0413ZM63.7015 80.5866L45.6873 70.1903C45.6567 70.1736 45.6205 70.1736 45.59 70.1597C45.4064 70.0624 45.1922 69.9901 44.9642 69.9539L44.953 69.9511L44.8029 69.94C44.7528 69.9344 44.6944 69.9344 44.6332 69.9344C44.4719 69.9344 44.3134 69.9539 44.1604 69.9901L44.1743 69.9873C44.1075 70.004 44.0464 70.029 43.9824 70.0485C43.8405 70.0818 43.7154 70.1236 43.5958 70.1736L43.6097 70.1681L25.5677 80.5866L23.1898 76.4704L44.6332 64.091L66.0766 76.4704L63.7015 80.5866ZM81.3735 47.5454C80.5141 53.3359 77.68 58.3422 73.586 61.9662L73.561 61.9884C70.229 64.6111 67.3143 67.5203 64.7667 70.7327L64.6832 70.8411L50.4683 62.6364L52.6321 58.8929L60.8451 51.0498C60.987 50.9163 61.1093 50.7605 61.2095 50.5909L61.215 50.5825L65.69 42.8339C65.996 42.2193 66.5189 41.7493 67.1558 41.5184L67.1752 41.5128C67.306 41.4795 67.4534 41.46 67.6091 41.46C67.9373 41.46 68.246 41.549 68.5102 41.702L68.5019 41.6964C68.9024 41.9245 69.2 42.2972 69.3251 42.7394L69.3279 42.7505C69.3557 42.8951 69.3724 43.0648 69.3724 43.2344C69.3724 43.7796 69.2056 44.2858 68.9191 44.7057L68.9246 44.6974L61.0926 58.2588C60.9174 58.5591 60.8145 58.9179 60.8145 59.3017C60.8145 60.0721 61.2289 60.7424 61.8491 61.1068L61.8603 61.1123C62.1579 61.2792 62.5111 61.3793 62.8893 61.3793C63.6597 61.3793 64.3328 60.9705 64.7055 60.3558L64.711 60.3475L73.6639 44.8476C73.8057 44.6084 73.9003 44.3275 73.9281 44.0243V44.016L75.9111 24.4721C76.028 23.1566 76.6426 22.0052 77.5632 21.1903L77.5688 21.1847C78.0221 20.9316 78.5617 20.7842 79.1346 20.7842C79.46 20.7842 79.7771 20.8315 80.0747 20.9205L80.0524 20.9149C80.1498 21.2097 80.2527 21.5935 80.3333 21.9829L80.3472 22.0552C80.5948 23.1566 80.8034 24.5083 80.9285 25.885L80.9369 26.0157C81.2734 29.2197 81.4486 32.6963 81.4903 36.9599C81.5014 37.8889 81.5293 38.8206 81.5599 39.7495C81.6127 40.5811 81.6405 41.5518 81.6405 42.5308C81.6405 44.2969 81.5432 46.0435 81.3568 47.7595L81.3763 47.5482L81.3735 47.5454ZM44.6972 41.4155C44.7 41.4155 44.7027 41.4155 44.7055 41.4155C55.2381 41.4155 63.7766 32.8771 63.7766 22.3445C63.7766 11.8119 55.2409 3.27622 44.7139 3.27344H44.6833C34.1535 3.279 25.6206 11.8147 25.6206 22.3445C25.6206 32.8743 34.159 41.4155 44.6916 41.4155C44.6944 41.4155 44.6972 41.4155 44.7 41.4155H44.6972ZM31.4612 29.0445H36.1671C36.7956 31.7256 37.7997 34.0869 39.1347 36.2229L39.0763 36.1228C35.7443 34.7155 33.0938 32.2374 31.5001 29.1279L31.4612 29.0445ZM29.7952 22.3417C29.8008 21.3377 29.9037 20.3587 30.0984 19.4158L30.0817 19.5104L35.5385 19.5382C35.4523 20.456 35.3299 21.3349 35.3299 22.3417C35.3299 23.2512 35.4467 24.0383 35.519 24.8726H30.0511C29.9009 24.1189 29.8091 23.2456 29.7952 22.3528V22.3417ZM48.9024 15.4303L40.5003 15.3886C41.3319 12.535 42.7809 10.0819 44.7027 8.08778L44.6972 8.09334C46.619 10.0958 48.0708 12.56 48.869 15.3079L48.9024 15.4303ZM49.7451 19.6077C49.8369 20.4282 49.887 21.3794 49.887 22.3417C49.887 23.2345 49.8314 24.0688 49.7563 24.8726H39.6353C39.5574 24.0661 39.5046 23.2345 39.5046 22.3417C39.5046 22.3389 39.5046 22.3333 39.5046 22.3306C39.5046 21.3543 39.5574 20.3892 39.6603 19.4408L39.6492 19.5577L49.7451 19.6077ZM59.5963 22.3417C59.5824 23.2456 59.4906 24.1189 59.3265 24.9672L59.3405 24.8726H53.8725C53.9421 24.0355 54.0616 23.2512 54.0616 22.3417C54.0616 21.3655 53.942 20.5172 53.8586 19.6272L59.3238 19.655C59.4879 20.4588 59.5852 21.3877 59.5963 22.3361V22.3445V22.3417ZM40.4335 29.0445H48.9608C48.1431 31.9954 46.6663 34.5347 44.6944 36.5956L44.7 36.59C42.7308 34.5375 41.254 31.9954 40.4641 29.1697L40.4335 29.0473V29.0445ZM50.3153 36.1256C51.5919 34.0897 52.5931 31.7256 53.1911 29.2058L53.2245 29.0473H57.9304C56.3005 32.2402 53.65 34.7183 50.4154 36.0894L50.3153 36.1256ZM57.8386 15.4748L53.18 15.4525C52.5459 12.8409 51.5613 10.5436 50.2597 8.46325L50.3181 8.56059C53.5916 9.94566 56.2032 12.3598 57.8024 15.3913L57.8414 15.472L57.8386 15.4748ZM39.0763 8.56059C37.8442 10.5186 36.8652 12.7881 36.2644 15.2078L36.231 15.3691L31.6225 15.3468C33.2662 12.293 35.85 9.92619 38.9817 8.59675L39.0763 8.56059Z" fill="white"/>
</svg>
