<svg width="84" height="84" viewBox="0 0 84 84" fill="none" xmlns="http://www.w3.org/2000/svg">
<path d="M18.9231 12.8519V9.02257C18.9231 7.99042 18.0857 7.15296 17.0535 7.15296C16.0208 7.15296 15.185 7.99042 15.185 9.02257V46.9975C15.185 47.1484 15.2076 47.294 15.2408 47.4352C15.2387 50.549 15.2376 53.6647 15.2367 56.6296H13.9092C11.101 56.6296 8.80363 58.8342 8.6407 61.6028C8.64284 61.7716 8.64499 61.8992 8.64713 61.9826C8.6482 62.0332 8.63963 62.0807 8.6366 62.1303C8.75009 64.9445 11.0689 67.1993 13.9094 67.1993H15.2401C15.2412 68.6011 15.2433 69.8616 15.2455 70.9386H13.6264C13.5293 70.9386 13.4365 70.9248 13.3416 70.9102C8.63 70.6159 4.88435 66.7006 4.88435 61.9151C4.88435 61.8066 4.89702 61.701 4.90005 61.5923C4.84312 56.04 4.90005 13.8138 4.90701 9.21815C4.89916 9.1532 4.88649 9.09003 4.88649 9.02347C4.88613 4.04776 8.93443 0 13.9103 0H16.8979H62.2326H62.6894C63.7219 0 64.5594 0.836927 64.5594 1.86961V9.03685H28.0083C24.4565 9.03453 21.2389 10.4992 18.9231 12.8519ZM23.2056 74.663C23.2077 74.8316 23.2097 74.9605 23.2118 75.0427C23.2118 75.0932 23.2034 75.1419 23.2013 75.1925C23.3146 78.0046 25.6335 80.2606 28.4752 80.2606H75.3877V75.0932C75.3877 74.0597 76.2252 73.2233 77.2578 73.2233C78.2903 73.2233 79.1269 74.0598 79.1269 75.0932V82.1309C79.1269 83.1623 78.2903 84 77.2578 84H28.1925C28.0938 84 28.001 83.9863 27.9072 83.9704C23.1961 83.6761 19.4499 79.7607 19.4499 74.9763C19.4499 74.8679 19.4631 74.7613 19.4663 74.6526C19.4089 69.1004 19.4663 26.8748 19.4728 22.279C19.4653 22.213 19.4521 22.1504 19.4521 22.0833C19.4521 17.1085 23.5004 13.0603 28.4762 13.0603H31.4638H76.799H77.2568C78.2893 13.0603 79.1258 13.8973 79.1258 14.93V67.7713C79.1258 68.8027 78.2893 69.6404 77.2568 69.6404C77.2461 69.6404 77.2345 69.6371 77.2239 69.6371C77.0867 69.67 76.9445 69.691 76.7967 69.691H28.4741C25.6657 69.6909 23.3685 71.8954 23.2056 74.663ZM29.7498 60.0576C29.7498 61.0903 30.5868 61.9278 31.6194 61.9278C32.6519 61.9278 33.489 61.0903 33.489 60.0576V22.0831C33.489 21.0504 32.6521 20.2135 31.6194 20.2135C30.5868 20.2135 29.7498 21.0504 29.7498 22.0831V60.0576Z" fill="white"/>
</svg>
