<svg width="95" height="95" viewBox="0 0 95 95" fill="none" xmlns="http://www.w3.org/2000/svg">
<path d="M64.1992 28.2773C70.4336 28.2773 75.4805 33.3242 75.4805 39.5586C75.4805 45.793 70.4336 50.8398 64.1992 50.8398C57.9648 50.8398 52.918 45.793 52.918 39.5586C52.918 33.3242 57.9648 28.2773 64.1992 28.2773ZM78.375 53.7344H52.6211C48.9102 53.7344 45.2734 54.2539 42.6016 57.8906C41.4141 59.6719 30.7266 73.1797 30.7266 73.1797H15.6602C12.9883 73.1797 10.7617 75.4062 10.7617 78.0781C10.7617 80.75 12.9883 82.9766 15.6602 82.9766H32.8047C34.0664 82.9766 35.3281 82.457 36.2188 81.5664L46.2383 69.3945C46.5352 69.0977 46.7578 68.9492 47.2031 68.9492C48.0195 68.9492 48.6133 69.4688 48.6133 70.3594V92.5508H79.7852V70.6562C79.7852 69.8398 80.3047 69.2461 81.1953 69.2461C82.0117 69.2461 82.6055 69.7656 82.6055 70.6562V92.5508H92.4766V67.9102C92.5508 60.1172 86.168 53.7344 78.375 53.7344ZM5.56641 59.0039C5.56641 59.0039 5.56641 57.7422 5.56641 57.5195H23.8984C23.6016 58.0391 23.4531 58.707 23.3047 59.2266C23.1562 60.1172 23.2305 60.8594 23.4531 61.6016L8.08984 61.5273C6.67969 61.5273 5.56641 60.4141 5.56641 59.0039ZM25.8281 25.9023C25.8281 28.5 25.7539 51.8047 25.7539 54.4023H8.23828L19.2227 45.2734L19.1484 25.9023C20.1875 25.9023 24.8633 25.9023 25.8281 25.9023ZM27.5352 61.6016H26.793C26.3477 61.1563 26.1992 60.4883 26.3477 59.8203C26.5703 58.6328 27.4609 57.5938 27.832 57.4453C28.4258 57.2227 28.8711 56.7031 28.8711 56.0352L28.9453 24.418C28.9453 23.6016 28.2773 22.8594 27.3867 22.8594C27.3867 22.8594 21.0039 22.8594 19.2227 22.8594C19.2227 21.375 19.2227 19.2969 19.2227 19.2969C19.2227 18.7031 18.8516 18.1094 18.332 17.8867C17.8125 17.6641 17.0703 17.7383 16.6992 18.1836L5.9375 28.7969C4.00781 30.6523 2.59766 34.2148 2.59766 36.8125L2.44922 59.0039C2.44922 62.1211 4.97266 64.6445 8.01562 64.6445L27.4609 64.7188C28.2773 64.7188 29.0195 64.0508 29.0195 63.1602C29.0195 62.2695 28.4258 61.6016 27.5352 61.6016Z" fill="white"/>
</svg>
