<svg width="84" height="84" viewBox="0 0 84 84" fill="none" xmlns="http://www.w3.org/2000/svg">
<g clip-path="url(#clip0_112_194)">
<path d="M82.4798 75.145L75.1191 67.7826C80.6766 60.6603 84 51.7142 84 42C84 18.8418 65.1582 0 42 0C18.8418 0 0 18.8418 0 42C0 65.1582 18.8418 84 42 84C51.7142 84 60.6603 80.6766 67.7826 75.1191L75.1447 82.4813C76.1257 83.4608 77.4277 84 78.8124 84C81.6738 84 84 81.6738 84 78.8124C84 77.4277 83.4608 76.1243 82.4798 75.145ZM74.2414 64.4159C73.1804 63.6355 71.3934 62.5122 68.6999 61.3647L63.1939 55.8588C64.2859 51.8727 64.8819 47.677 64.9864 43.3549H81.2567C80.9898 51.1654 78.4371 58.4004 74.2414 64.4159ZM81.2564 40.6454H64.9997V40.6451C64.8546 34.6703 63.7723 29.4039 62.1423 24.8221C68.7093 23.1218 72.4865 20.8835 74.2451 19.5898C78.4383 25.6039 80.9895 32.8374 81.2564 40.6454ZM53.7545 46.4194C54.3466 45.4426 54.8735 44.4238 55.3071 43.3549H62.2763C62.187 46.8897 61.748 50.3295 60.9622 53.6273L53.7545 46.4194ZM54.9873 51.4841L51.4838 54.9876L48.6847 52.1885C49.9827 51.1574 51.156 49.983 52.1882 48.685L54.9873 51.4841ZM56.1891 40.6451C56.6389 38.9096 56.9032 37.0995 56.9032 35.2257C56.9032 32.016 56.1837 28.9785 54.9264 26.235C56.5564 26.0045 58.0763 25.739 59.4841 25.4437C61.0748 29.8295 62.1423 34.8857 62.29 40.6451H56.1891ZM72.6154 17.4138C71.0858 18.5274 67.5265 20.6559 61.1508 22.2736C57.0808 12.6041 50.7253 6.30004 46.624 2.99027C57.0984 4.22564 66.3207 9.59104 72.6154 17.4138ZM43.3549 3.88308C46.8354 6.41385 54.0134 12.577 58.4721 22.8859C56.9656 23.1935 55.3208 23.4618 53.5445 23.688C51.1344 19.874 47.5805 16.861 43.3549 15.1431V3.88308ZM37.3055 2.99965C34.2475 5.44649 29.9704 9.53955 26.2865 15.4993C23.4074 16.8095 20.867 18.7252 18.8239 21.0906C14.9234 19.7346 12.558 18.2753 11.3806 17.4164C17.6631 9.60982 26.8598 4.2501 37.3055 2.99965ZM40.6451 3.87767V14.2625C38.9096 13.8127 37.0995 13.5484 35.2257 13.5484C33.5999 13.5484 32.0229 13.7421 30.4987 14.0836C34.2407 8.93381 38.2891 5.57794 40.6451 3.87767ZM9.75635 19.5872C11.0407 20.5301 13.3927 21.9786 17.1091 23.3551C14.8654 26.7676 13.5484 30.8444 13.5484 35.226C13.5484 37.0998 13.8127 38.9099 14.2625 40.6454H2.74359C3.01047 32.8374 5.56315 25.6028 9.75635 19.5872ZM2.74359 43.3549H15.1445C16.185 45.9169 17.7037 48.2309 19.587 50.1969C20.0843 53.4432 20.8536 56.4278 21.813 59.1686C15.2515 60.8674 11.5107 63.1111 9.7535 64.4077C5.56172 58.3935 3.01047 51.1614 2.74359 43.3549ZM11.3767 66.5754C12.894 65.4604 16.4086 63.3305 22.7789 61.7184C26.8137 71.4517 33.1461 77.7042 37.277 80.9964C26.8393 79.7391 17.6522 74.3794 11.3767 66.5754ZM40.6451 80.1169C37.1592 77.5887 29.9581 71.4215 25.502 61.1004C29.545 60.2836 34.5471 59.7023 40.6451 59.6264V80.1169ZM40.6454 56.9166C34.13 56.9966 28.7973 57.6387 24.4877 58.5438C23.8587 56.8085 23.3141 54.9657 22.8751 53.0176C26.3829 55.4605 30.637 56.9032 35.226 56.9032C37.0998 56.9032 38.9099 56.6389 40.6454 56.1891V56.9166ZM35.226 54.1938C24.7666 54.1938 16.2581 45.6853 16.2581 35.226C16.2581 24.7666 24.7666 16.2581 35.226 16.2581C45.6853 16.2581 54.1938 24.7666 54.1938 35.226C54.1938 45.6853 45.6853 54.1938 35.226 54.1938ZM43.3549 55.3071C44.4238 54.8721 45.4426 54.3466 46.4194 53.7545L49.8783 57.2134C47.77 57.0466 45.5915 56.9505 43.3546 56.922C43.3549 56.9223 43.3549 55.3071 43.3549 55.3071ZM43.3549 59.6318C46.6837 59.675 49.8851 59.8716 52.8916 60.2264L56.9764 64.3112C52.5541 72.7152 46.4709 77.869 43.3549 80.1195V59.6318ZM46.7014 80.9989C50.1224 78.2636 55.0621 73.4632 58.9788 66.3139L65.8547 73.1898C60.4111 77.364 53.8495 80.1428 46.7014 80.9989ZM67.9561 71.4597L53.3997 56.9032L56.9032 53.3997L71.4597 67.9561C70.3663 69.1958 69.1958 70.3663 67.9561 71.4597ZM78.8124 81.2903C78.1512 81.2903 77.5293 81.0328 77.0607 80.5642L69.8746 73.3782C71.1103 72.2794 72.2794 71.1103 73.3782 69.8746L80.5642 77.0607C81.0331 77.5295 81.2903 78.1512 81.2903 78.8124C81.2903 80.1795 80.1795 81.2903 78.8124 81.2903Z" fill="white"/>
<path d="M35.2269 18.9678C26.2618 18.9678 18.9688 26.2611 18.9688 35.2262C18.9688 44.1913 26.2618 51.484 35.2269 51.484C44.192 51.484 51.485 44.191 51.485 35.2259C51.485 26.2608 44.192 18.9678 35.2269 18.9678ZM40.6463 47.6351C38.9853 48.364 37.1536 48.7745 35.2269 48.7745C33.3001 48.7745 31.4684 48.364 29.8074 47.6351V44.7099C29.8074 41.7211 32.238 39.2905 35.2269 39.2905C38.2157 39.2905 40.6463 41.7211 40.6463 44.7099V47.6351ZM31.1623 31.1616C31.1623 28.9207 32.986 27.097 35.2269 27.097C37.4677 27.097 39.2915 28.9207 39.2915 31.1616C39.2915 33.4024 37.4677 35.2262 35.2269 35.2262C32.986 35.2262 31.1623 33.4024 31.1623 31.1616ZM43.3558 46.0389V44.7099C43.3558 41.3051 41.2489 38.3869 38.2723 37.1785C40.4739 36.0581 42.0009 33.7956 42.0009 31.1616C42.0009 27.4262 38.962 24.3872 35.2266 24.3872C31.4912 24.3872 28.4525 27.4262 28.4525 31.1616C28.4525 33.7953 29.9795 36.0581 32.1811 37.1785C29.2045 38.3871 27.0977 41.3054 27.0977 44.7099V46.0389C23.8149 43.5636 21.6782 39.6456 21.6782 35.2259C21.6782 27.7553 27.756 21.6775 35.2269 21.6775C42.6974 21.6775 48.7752 27.7553 48.7752 35.2259C48.7752 39.6453 46.6385 43.5636 43.3558 46.0389Z" fill="white"/>
</g>
<defs>
<clipPath id="clip0_112_194">
<rect width="84" height="84" fill="white"/>
</clipPath>
</defs>
</svg>
